<?xml version="1.0" standalone="no"?>
<!DOCTYPE svg PUBLIC "-//W3C//DTD SVG 20010904//EN"
 "http://www.w3.org/TR/2001/REC-SVG-20010904/DTD/svg10.dtd">
<svg version="1.0" xmlns="http://www.w3.org/2000/svg"
 width="369.000000pt" height="327.000000pt" viewBox="0 0 369.000000 327.000000"
 preserveAspectRatio="xMidYMid meet">

<g transform="translate(0.000000,327.000000) scale(0.100000,-0.100000)"
fill="#000000" stroke="none">
<path d="M1750 2755 c0 -19 5 -35 10 -35 6 0 10 6 10 14 0 8 6 17 13 19 7 3 5
6 -5 6 -26 1 -22 19 5 24 19 4 18 4 -5 6 -26 1 -28 -2 -28 -34z"/>
<path d="M1857 2783 c-10 -9 -9 -51 1 -57 4 -2 8 7 7 21 0 14 6 28 14 31 10 3
13 -3 9 -27 -5 -33 14 -40 20 -7 6 30 -32 59 -51 39z"/>
<path d="M1967 2748 c-5 -34 2 -53 10 -30 4 10 9 8 20 -5 13 -17 14 -17 8 4
-3 12 -1 24 5 28 13 8 13 25 0 25 -5 0 -10 -7 -10 -15 0 -8 -5 -15 -11 -15 -6
0 -9 9 -6 20 3 11 2 20 -3 20 -4 0 -10 -15 -13 -32z"/>
<path d="M1560 2760 c-13 -8 -12 -10 3 -10 11 0 17 -8 17 -25 0 -14 4 -25 9
-25 4 0 6 12 3 26 -3 16 1 30 9 35 11 7 9 9 -6 9 -11 0 -27 -5 -35 -10z"/>
<path d="M1486 2720 c7 -25 7 -25 -15 -6 -29 26 -35 16 -16 -25 10 -23 14 -26
11 -11 -4 22 -3 23 13 8 10 -9 21 -16 24 -16 13 0 7 36 -9 56 -14 18 -15 18
-8 -6z"/>
<path d="M2167 2708 c-10 -17 -15 -33 -13 -36 3 -2 11 8 18 24 l13 28 6 -34 6
-35 2 37 c1 48 -10 54 -32 16z"/>
<path d="M1344 2687 c-3 -9 -3 -29 2 -45 7 -25 8 -26 11 -4 5 25 13 28 31 10
26 -26 18 -1 -9 27 -24 25 -29 27 -35 12z"/>
<path d="M1244 2644 c-10 -8 -14 -13 -8 -10 7 3 17 -8 24 -24 7 -16 16 -27 21
-24 5 3 1 16 -8 30 -14 22 -14 27 -2 35 8 5 9 9 3 9 -5 0 -19 -7 -30 -16z"/>
<path d="M2354 2649 c-3 -6 -1 -16 5 -22 18 -18 13 -30 -10 -24 -16 4 -19 3
-11 -5 20 -20 43 -1 36 28 -5 21 -4 25 6 19 9 -5 11 -4 6 3 -9 15 -23 15 -32
1z"/>
<path d="M1954 2610 c-33 -13 -82 -76 -95 -122 -7 -24 -26 -62 -42 -86 -36
-54 -81 -153 -95 -212 -6 -25 -14 -99 -17 -165 l-7 -120 25 50 c13 28 39 64
58 79 31 26 38 28 100 24 82 -6 136 -32 161 -79 16 -29 18 -52 16 -171 -3
-130 -4 -138 -28 -164 -108 -117 -491 -102 -590 23 -20 25 -21 37 -18 140 3
112 3 112 37 147 18 19 56 44 83 56 47 20 51 20 69 4 10 -9 22 -35 28 -58 l9
-41 1 40 c0 22 -3 81 -8 131 -10 97 -33 160 -78 208 -15 17 -28 36 -29 44 -5
31 -15 42 -38 42 -46 0 -80 -71 -60 -124 7 -18 49 -22 59 -5 10 16 40 -16 64
-67 30 -63 27 -77 -18 -98 -49 -21 -136 -98 -157 -137 -8 -16 -21 -52 -28 -81
-14 -52 -15 -52 -15 -15 -1 42 -18 48 -46 17 -27 -29 -33 -131 -11 -165 9 -14
25 -25 35 -25 15 0 20 -13 30 -71 14 -85 36 -132 88 -181 179 -174 692 -127
793 73 13 24 20 58 20 93 l0 56 40 6 c62 10 80 40 80 131 0 69 -2 77 -29 104
-16 16 -39 29 -50 29 -19 0 -21 -6 -22 -67 l-1 -68 -18 86 c-20 99 -28 116
-78 171 -65 72 -192 117 -331 118 l-63 0 7 28 c20 85 97 212 127 212 57 0 138
86 138 147 0 56 -43 85 -96 63z"/>
<path d="M2438 2580 c-19 -33 -13 -40 9 -12 13 16 13 15 7 -7 -5 -20 -3 -23
11 -17 13 4 16 2 11 -9 -10 -27 8 -16 26 15 19 33 17 35 -13 20 -16 -9 -19 -7
-19 15 0 33 -11 32 -32 -5z"/>
<path d="M1145 2590 c-9 -15 4 -30 27 -30 14 0 18 -5 14 -15 -3 -8 -1 -15 4
-15 6 0 10 9 10 20 0 13 -7 20 -20 20 -22 0 -27 15 -7 23 7 3 6 6 -5 6 -9 1
-20 -3 -23 -9z"/>
<path d="M1077 2544 c-3 -6 5 -23 18 -40 13 -16 24 -24 25 -17 0 6 -5 15 -11
18 -6 4 -14 16 -18 28 -4 11 -10 16 -14 11z"/>
<path d="M2554 2498 l-29 -31 32 22 32 22 -14 -27 c-8 -15 -11 -32 -8 -38 4
-5 12 8 20 29 18 52 3 62 -33 23z"/>
<path d="M995 2470 c-9 -15 4 -30 26 -30 20 0 26 -15 9 -23 -6 -3 -5 -4 2 -3
24 5 15 41 -11 44 -19 3 -21 6 -10 13 9 5 10 9 2 9 -6 0 -15 -4 -18 -10z"/>
<path d="M2640 2425 c-13 -14 -21 -27 -18 -30 2 -3 17 9 33 25 16 17 24 30 19
30 -6 0 -21 -11 -34 -25z"/>
<path d="M2680 2423 c0 -6 -9 -13 -20 -16 -11 -3 -20 -13 -20 -22 0 -15 5 -13
27 9 14 14 23 29 20 33 -4 3 -7 2 -7 -4z"/>
<path d="M927 2403 c-16 -15 -6 -33 18 -33 25 0 34 -14 15 -23 -6 -3 -5 -4 2
-3 7 2 13 11 13 22 0 14 -6 18 -24 16 -17 -1 -22 2 -17 13 6 16 3 19 -7 8z"/>
<path d="M2745 2361 c3 -5 -7 -19 -21 -30 -18 -14 -21 -21 -12 -21 9 0 21 7
28 15 7 9 20 13 29 10 11 -4 10 -1 -4 15 -19 21 -31 27 -20 11z"/>
<path d="M847 2313 c-6 -9 37 -63 50 -63 4 0 2 5 -5 12 -20 20 -15 40 7 28 12
-6 22 -6 25 -1 3 5 -5 12 -18 15 -13 3 -31 8 -39 12 -8 3 -17 2 -20 -3z"/>
<path d="M2782 2262 c-23 -18 -22 -52 0 -52 7 0 6 5 -1 13 -15 19 -1 30 17 14
13 -10 15 -9 10 5 -9 22 2 30 21 15 14 -11 14 -10 2 6 -17 21 -20 21 -49 -1z"/>
<path d="M2838 2171 c-16 -10 -25 -21 -21 -24 3 -4 13 -1 21 6 13 10 14 9 2
-13 -10 -21 -10 -23 1 -12 7 6 21 12 31 12 10 0 18 4 18 10 0 5 -7 7 -15 4
-18 -7 -20 7 -3 24 17 17 -3 13 -34 -7z"/>
<path d="M737 2143 c-4 -3 -7 -11 -7 -17 0 -6 4 -5 9 3 7 11 13 10 35 -4 15
-10 29 -15 32 -12 3 3 -8 13 -25 21 -34 18 -35 18 -44 9z"/>
<path d="M696 2051 c-3 -5 0 -8 7 -7 6 0 12 -3 13 -9 0 -5 -9 -9 -20 -7 -13 1
-7 -4 13 -13 41 -18 42 -18 35 -1 -3 8 2 16 13 19 14 4 14 5 -4 6 -13 0 -23 6
-23 11 0 12 -27 13 -34 1z"/>
<path d="M2933 1998 c-18 -6 -33 -15 -33 -19 0 -5 2 -9 5 -9 10 0 65 30 65 35
0 3 -1 5 -2 4 -2 -1 -18 -6 -35 -11z"/>
<path d="M1807 1949 c-26 -15 -57 -86 -57 -132 0 -93 70 -131 124 -66 32 38
36 90 6 82 -14 -4 -23 2 -32 22 -10 23 -9 32 4 56 16 27 16 29 -2 39 -22 12
-20 12 -43 -1z m-7 -164 c0 -14 -4 -25 -10 -25 -11 0 -14 33 -3 43 11 11 13 8
13 -18z"/>
<path d="M650 1930 c0 -5 15 -17 33 -26 20 -10 27 -11 20 -3 -19 19 -16 27 10
32 12 2 3 5 -20 6 -24 0 -43 -3 -43 -9z"/>
<path d="M1524 1894 c-21 -32 -30 -114 -15 -143 15 -28 55 -27 75 1 20 28 21
68 2 68 -20 0 -29 35 -17 59 16 29 13 41 -9 41 -11 0 -27 -12 -36 -26z m8
-126 c-9 -9 -12 -7 -12 12 0 19 3 21 12 12 9 -9 9 -15 0 -24z"/>
<path d="M2960 1884 c-21 -7 -27 -12 -15 -12 31 0 71 13 60 20 -6 3 -26 0 -45
-8z"/>
<path d="M630 1825 c10 -9 24 -12 40 -8 22 6 22 7 4 14 -10 4 -28 8 -39 8 -17
1 -18 -1 -5 -14z"/>
<path d="M2980 1804 c-26 -9 -29 -13 -13 -13 12 -1 24 -7 26 -13 3 -8 6 -6 6
5 1 9 5 17 10 17 5 0 12 -8 14 -17 4 -14 5 -13 6 4 1 29 -8 33 -49 17z"/>
<path d="M638 1796 c-32 -11 -37 -26 -9 -26 11 0 26 -3 35 -6 9 -3 16 -1 16 5
0 6 -8 11 -17 12 -16 0 -16 1 1 8 11 4 15 10 10 13 -5 2 -21 0 -36 -6z"/>
<path d="M1650 1690 c-39 -39 -22 -70 39 -70 49 0 59 31 23 73 -20 22 -37 22
-62 -3z"/>
<path d="M2971 1683 c0 -26 1 -27 9 -6 6 15 16 21 34 19 14 -2 26 1 26 5 0 5
-16 9 -35 9 -32 0 -35 -3 -34 -27z"/>
<path d="M600 1688 c0 -24 21 -34 32 -14 12 21 25 20 31 -1 4 -14 5 -12 6 5 1
15 -5 22 -18 22 -11 0 -22 -6 -24 -12 -4 -10 -8 -9 -16 2 -9 13 -11 13 -11 -2z"/>
<path d="M618 1158 c-3 -7 -3 -55 0 -106 l5 -92 28 0 c21 0 28 5 31 23 2 17
11 23 38 25 50 5 70 27 70 77 0 65 -16 79 -97 83 -53 3 -71 1 -75 -10z m102
-73 c0 -18 -5 -25 -20 -25 -15 0 -20 7 -20 25 0 18 5 25 20 25 15 0 20 -7 20
-25z"/>
<path d="M880 1155 c0 -8 11 -40 25 -71 14 -31 25 -72 25 -90 0 -32 2 -34 35
-34 32 0 35 3 35 29 0 16 14 61 30 99 17 39 30 74 30 77 0 3 -17 5 -37 3 -33
-3 -38 -7 -46 -38 l-10 -35 -10 38 c-8 34 -12 37 -43 37 -23 0 -34 -5 -34 -15z"/>
<path d="M1365 1146 c-21 -21 -25 -34 -25 -83 0 -71 18 -100 65 -109 54 -10
85 2 85 31 0 22 -4 25 -40 25 l-40 0 0 50 c0 51 1 53 50 54 20 1 25 6 25 26 0
23 -4 25 -47 28 -40 3 -52 -1 -73 -22z"/>
<path d="M1590 1065 l0 -105 35 0 c33 0 35 2 35 35 0 31 3 35 25 35 22 0 25
-4 25 -35 0 -33 2 -35 35 -35 l36 0 -3 103 -3 102 -32 3 c-32 3 -33 2 -33 -37
0 -37 -2 -41 -25 -41 -22 0 -25 4 -25 40 0 39 -1 40 -35 40 l-35 0 0 -105z"/>
<path d="M1911 1133 c-26 -98 -41 -158 -41 -165 0 -4 16 -8 35 -8 24 0 35 5
35 15 0 10 10 15 30 15 20 0 30 -5 30 -15 0 -11 11 -15 38 -15 l38 0 -26 103
-27 102 -51 3 -51 3 -10 -38z m69 -68 c0 -14 -4 -25 -10 -25 -11 0 -14 33 -3
43 11 11 13 8 13 -18z"/>
<path d="M2140 1140 c0 -25 4 -30 25 -30 24 0 25 -2 25 -75 l0 -75 30 0 30 0
0 75 c0 73 1 75 25 75 21 0 25 5 25 30 l0 30 -80 0 -80 0 0 -30z"/>
<path d="M2400 1065 l0 -105 73 0 c43 0 78 5 85 12 18 18 15 75 -5 87 -15 8
-16 12 -5 22 19 20 15 67 -7 79 -11 5 -47 10 -80 10 l-61 0 0 -105z m98 43
c-6 -18 -28 -21 -28 -4 0 9 7 16 16 16 9 0 14 -5 12 -12z m2 -83 c0 -8 -7 -15
-15 -15 -8 0 -15 7 -15 15 0 8 7 15 15 15 8 0 15 -7 15 -15z"/>
<path d="M2703 1158 c-46 -22 -55 -145 -14 -182 25 -23 85 -31 120 -16 38 15
55 57 49 122 -4 38 -12 57 -28 70 -25 20 -91 23 -127 6z m85 -95 c-3 -41 -6
-48 -25 -51 -21 -3 -23 0 -23 47 0 48 2 51 26 51 24 0 25 -2 22 -47z"/>
<path d="M2946 1155 c-8 -23 4 -45 25 -45 17 0 19 -8 19 -75 l0 -75 35 0 35 0
0 75 c0 73 1 75 25 75 21 0 25 5 25 30 l0 30 -79 0 c-61 0 -80 -3 -85 -15z"/>
<path d="M1150 1045 c0 -22 4 -25 34 -25 47 0 66 9 66 31 0 16 -8 19 -50 19
-47 0 -50 -2 -50 -25z"/>
</g>
</svg>
